<?xml version="1.0" encoding="iso-8859-1"?>
<!-- Uploaded to: SVG Repo, www.svgrepo.com, Generator: SVG Repo Mixer Tools -->
<svg height="800px" width="800px" version="1.1" id="Capa_1" xmlns="http://www.w3.org/2000/svg" xmlns:xlink="http://www.w3.org/1999/xlink" 
	 viewBox="0 0 389.157 389.157" xml:space="preserve">
<g>
	<path style="fill:#010002;" d="M0.081,232.699c-0.431,4.373,0.862,8.641,3.65,12.038L99.77,361.65
		c2.788,3.39,6.73,5.495,11.096,5.926c0.545,0.057,1.097,0.081,1.634,0.081c3.796,0,7.438-1.301,10.405-3.739l226.934-186.429
		c7.015-5.747,21.825-65.248,22.711-74.376c0.317-3.235,0.293-6.625-2.008-9.421l-8.925-10.86
		c-2.845-3.471-7.966-3.983-11.437-1.122c-3.471,2.853-3.967,7.966-1.122,11.437l7.299,8.893
		c-1.138,11.209-13.875,55.64-17.785,63.663L112.345,351.335L16.347,234.186l225.974-185.64c8.633-2.276,54.697-6.194,65.906-5.097
		l7.299,8.885c2.837,3.471,7.966,3.983,11.437,1.122c3.471-2.853,3.967-7.966,1.122-11.437l-8.925-10.86
		c-2.3-2.804-5.617-3.487-8.844-3.796c-9.137-0.951-70.369,2.081-77.376,7.844L6.031,221.619
		C2.634,224.399,0.52,228.342,0.081,232.699z"/>
	<path style="fill:#010002;" d="M387.31,24.469c-2.845-3.455-7.958-3.983-11.437-1.122l-87.927,72.239
		c-3.471,2.853-3.967,7.974-1.122,11.437c1.601,1.951,3.934,2.967,6.283,2.967c1.813,0,3.633-0.602,5.154-1.853l87.927-72.239
		C389.659,33.053,390.155,27.932,387.31,24.469z"/>
	<path style="fill:#010002;" d="M274.575,87.27c3.56-2.926,7.868-4.698,12.437-5.137c4.471-0.423,7.755-4.381,7.324-8.852
		c-0.423-4.471-4.3-7.877-8.852-7.324c-7.82,0.732-15.16,3.764-21.232,8.754c-8.112,6.665-13.136,16.086-14.16,26.532
		c-1.024,10.445,2.081,20.663,8.746,28.767c7.755,9.437,19.029,14.331,30.385,14.331c8.771,0,17.607-2.918,24.898-8.917
		c8.104-6.649,13.136-16.078,14.16-26.515c0.439-4.471-2.829-8.446-7.291-8.885c-4.544-0.406-8.446,2.829-8.885,7.291
		c-0.602,6.121-3.552,11.64-8.307,15.542c-4.755,3.902-10.77,5.747-16.859,5.121c-6.121-0.593-11.648-3.544-15.55-8.299
		c-3.91-4.755-5.723-10.738-5.129-16.859C266.877,96.699,269.82,91.18,274.575,87.27z"/>
</g>
</svg>